<?xml version="1.0" encoding="utf-8"?>
<!-- Generator: Adobe Illustrator 21.0.0, SVG Export Plug-In . SVG Version: 6.00 Build 0)  -->
<svg version="1.1" id="图层_1" xmlns="http://www.w3.org/2000/svg" xmlns:xlink="http://www.w3.org/1999/xlink" x="0px" y="0px"
	 viewBox="0 0 84 20" style="enable-background:new 0 0 84 20;" xml:space="preserve">
<style type="text/css">
	.st0{clip-path:url(#SVGID_2_);}
	.st1{fill:#555555;}
	.st2{fill:#FE7D37;}
	.st3{fill:url(#SVGID_3_);}
	.st4{enable-background:new    ;}
	.st5{fill:none;}
	.st6{fill:#010101;}
	.st7{font-family:'Verdana';}
	.st8{font-size:11px;}
	.st9{fill:#FFFFFF;}
	.st10{fill:#070707;}
</style>
<g>
	<defs>
		<path id="SVGID_1_" d="M3,0h78c1.7,0,3,1.3,3,3v14c0,1.7-1.3,3-3,3H3c-1.7,0-3-1.3-3-3V3C0,1.3,1.3,0,3,0z"/>
	</defs>
	<clipPath id="SVGID_2_">
		<use xlink:href="#SVGID_1_"  style="overflow:visible;"/>
	</clipPath>
	<g class="st0">
		<path class="st1" d="M0,0h19v20H0V0z"/>
		<path class="st2" d="M19,0h65v20H19V0z"/>
		
			<linearGradient id="SVGID_3_" gradientUnits="userSpaceOnUse" x1="-259.369" y1="387.75" x2="-259.369" y2="386.75" gradientTransform="matrix(84 0 0 -20 21829 7755)">
			<stop  offset="0" style="stop-color:#BBBBBB;stop-opacity:0.1"/>
			<stop  offset="1" style="stop-color:#000000;stop-opacity:0.1"/>
		</linearGradient>
		<path class="st3" d="M0,0h84v20H0V0z"/>
	</g>
</g>
<g>
	<g class="st4">
		<rect x="23.1" y="5.5" class="st5" width="55" height="12.8"/>
		<text transform="matrix(1 0 0 1 23.0508 15)"><tspan x="0" y="0" class="st6 st7 st8">QQ</tspan><tspan x="17.3" y="0" class="st6 st7 st8"> </tspan><tspan x="21.3" y="0" class="st6 st7 st8">Gruop</tspan></text>
	</g>
	<rect x="23.1" y="4.5" class="st5" width="55" height="12.8"/>
	<text transform="matrix(1 0 0 1 23.0508 14)" class="st4"><tspan x="0" y="0" class="st9 st7 st8">QQ</tspan><tspan x="17.3" y="0" class="st9 st7 st8"> </tspan><tspan x="21.3" y="0" class="st9 st7 st8">Gruop</tspan></text>
</g>
<path class="st10" d="M4.7,12c-0.4,1.1-0.5,2.1-0.2,2.3c0.2,0.1,0.6-0.2,1-0.7c0.1,0.6,0.5,1.1,1,1.6c-0.5,0.2-0.9,0.5-0.9,0.9
	c0,0.6,0.9,1.1,2.1,1.1c1,0,1.9-0.4,2.1-0.9c0.1,0,0.2,0,0.3,0c0.2,0.5,1,0.9,2.1,0.9c1.2,0,2.1-0.5,2.1-1.1c0-0.4-0.3-0.7-0.9-0.9
	c0.5-0.4,0.9-1,1-1.6c0.4,0.6,0.8,0.9,1,0.7c0.4-0.2,0.3-1.2-0.2-2.3c-0.4-0.8-0.8-1.5-1.2-1.6c0-0.1,0-0.1,0-0.2
	c0-0.3-0.1-0.6-0.2-0.9c0,0,0,0,0-0.1c0-0.1,0-0.3-0.1-0.4C13.6,6.7,12.2,5,10,5S6.3,6.7,6.2,8.9C6.2,9,6.1,9.2,6.1,9.3
	c0,0,0,0,0,0.1C6,9.6,5.9,9.9,5.9,10.3c0,0.1,0,0.1,0,0.2C5.5,10.6,5.1,11.2,4.7,12z"/>
<path class="st9" d="M4.5,11.6C4,12.6,4,13.7,4.3,13.8c0.2,0.1,0.6-0.2,1-0.7c0.1,0.6,0.5,1.1,1,1.6c-0.5,0.2-0.9,0.5-0.9,0.9
	c0,0.6,0.9,1.1,2.1,1.1c1,0,1.9-0.4,2.1-0.9c0.1,0,0.2,0,0.3,0c0.2,0.5,1,0.9,2.1,0.9c1.2,0,2.1-0.5,2.1-1.1c0-0.4-0.3-0.7-0.9-0.9
	c0.5-0.4,0.9-1,1-1.6c0.4,0.6,0.8,0.9,1,0.7c0.4-0.2,0.3-1.2-0.2-2.3c-0.4-0.8-0.8-1.5-1.2-1.6c0-0.1,0-0.1,0-0.2
	c0-0.3-0.1-0.6-0.2-0.9c0,0,0,0,0-0.1c0-0.1,0-0.3-0.1-0.4C13.4,6.2,12,4.5,9.8,4.5S6.1,6.2,6,8.4C5.9,8.6,5.9,8.7,5.9,8.9
	c0,0,0,0,0,0.1C5.8,9.2,5.7,9.5,5.7,9.8c0,0.1,0,0.1,0,0.2C5.3,10.1,4.8,10.7,4.5,11.6z"/>
</svg>
