<?xml version="1.0" encoding="utf-8"?>
<!-- Generator: Adobe Illustrator 21.0.0, SVG Export Plug-In . SVG Version: 6.00 Build 0)  -->
<svg version="1.1" id="图层_1" xmlns="http://www.w3.org/2000/svg" xmlns:xlink="http://www.w3.org/1999/xlink" x="0px" y="0px"
	 viewBox="0 0 80 20" style="enable-background:new 0 0 80 20;" xml:space="preserve">
<style type="text/css">
	.st0{clip-path:url(#SVGID_2_);}
	.st1{fill:#555555;}
	.st2{fill:#007EC6;}
	.st3{fill:url(#SVGID_3_);}
	.st4{enable-background:new    ;}
	.st5{fill:none;}
	.st6{fill:#FCFCFC;}
	.st7{font-family:'ArialMT';}
	.st8{font-size:12.5533px;}
	.st9{fill:#FFFFFF;}
	.st10{font-size:12.5775px;}
</style>
<g>
	<g>
		<g>
			<defs>
				<path id="SVGID_1_" d="M3,0h74c1.7,0,3,1.3,3,3v14c0,1.7-1.3,3-3,3H3c-1.7,0-3-1.3-3-3V3C0,1.3,1.3,0,3,0z"/>
			</defs>
			<clipPath id="SVGID_2_">
				<use xlink:href="#SVGID_1_"  style="overflow:visible;"/>
			</clipPath>
			<g class="st0">
				<path class="st1" d="M0,0h19v20H0V0z"/>
				<path class="st2" d="M19,0h61v20H19V0z"/>
				
					<linearGradient id="SVGID_3_" gradientUnits="userSpaceOnUse" x1="-784.5625" y1="349.25" x2="-784.5625" y2="348.25" gradientTransform="matrix(80 0 0 -20 62805 6985)">
					<stop  offset="0" style="stop-color:#BBBBBB;stop-opacity:0.1"/>
					<stop  offset="1" style="stop-color:#000000;stop-opacity:0.1"/>
				</linearGradient>
				<path class="st3" d="M0,0h80v20H0V0z"/>
			</g>
		</g>
	</g>
</g>
<g>
	<g class="st4">
		<rect x="23.3" y="5.5" class="st5" width="51" height="12.8"/>
	</g>
	<rect x="23.3" y="4.5" class="st5" width="51" height="12.8"/>
</g>
<path d="M6.8,15.7L7,12.6l5.7-5.1c0.3-0.2-0.1-0.3-0.4-0.1l-7,4.4l-3-1c-0.6-0.2-0.7-0.6,0.1-1l11.8-4.5c0.5-0.2,1.1,0.1,0.8,1
	l-2,9.5c-0.1,0.7-0.5,0.8-1.1,0.5L8.8,14l-1.5,1.4C7.2,15.6,7.1,15.7,6.8,15.7z"/>
<path class="st6" d="M6.4,14.8l0.2-3.1l5.7-5.1c0.3-0.2-0.1-0.3-0.4-0.1l-7,4.4l-3-1C1.3,9.7,1.2,9.3,2,8.9l11.8-4.5
	c0.5-0.2,1.1,0.1,0.8,1l-2,9.5c-0.1,0.7-0.5,0.8-1.1,0.5l-3.1-2.3L7,14.5C6.8,14.7,6.7,14.8,6.4,14.8z"/>
<text transform="matrix(1 0 0 1 24.2373 14.5225)" class="st7 st8">Telegram</text>
<text transform="matrix(1 0 0 1 24.1875 13.8418)" class="st9 st7 st10">Telegram</text>
</svg>
